<!DOCTYPE svg PUBLIC "-//W3C//DTD SVG 1.1//EN" "http://www.w3.org/Graphics/SVG/1.1/DTD/svg11.dtd">
<!-- Uploaded to: SVG Repo, www.svgrepo.com, Transformed by: SVG Repo Mixer Tools -->
<svg height="800px" width="800px" version="1.1" id="Layer_1" xmlns="http://www.w3.org/2000/svg" xmlns:xlink="http://www.w3.org/1999/xlink" viewBox="0 0 512 512" xml:space="preserve" fill="#000000">
<g id="SVGRepo_bgCarrier" stroke-width="0"/>
<g id="SVGRepo_tracerCarrier" stroke-linecap="round" stroke-linejoin="round"/>
<g id="SVGRepo_iconCarrier"> <path style="fill:#07a5b0;" d="M315.733,228.693v-0.853c0-8.533,1.707-16.213,5.973-23.04c7.68-12.8,19.627-41.813,19.627-93.867 l-42.667-68.267v0.853C294.4,84.48,256.853,160.427,256,162.133c-0.853-1.707-38.4-78.507-42.667-119.467l-42.667,68.267 c0,52.053,11.947,81.067,19.627,93.867c4.267,6.827,5.973,14.507,5.973,23.04v0.853c0,11.947-4.267,22.187-11.947,31.573 c-56.32,64-40.96,151.893-22.187,226.133c0,0,51.2,17.067,93.867,17.067s93.867-17.067,93.867-17.067 C368.64,412.16,384,324.267,327.68,260.267C320.853,250.88,315.733,240.64,315.733,228.693"/> <g> <path style="fill:#f0f0f0;" d="M341.333,110.933c9.387-8.533,25.6-25.6,25.6-34.133c0-18.773-15.36-32.427-68.267-34.133 L341.333,110.933z"/> <path style="fill:#f0f0f0;" d="M256,162.133c0.853-1.707,38.4-78.507,42.667-118.613v-0.853c-2.56,0-5.973,0-8.533,0 c-9.387,0-17.067-7.68-17.067-17.067V8.533H256h-17.067V25.6c0,9.387-7.68,17.067-17.067,17.067c-2.56,0-5.973,0-8.533,0 C217.6,83.627,255.147,160.427,256,162.133"/> <path style="fill:#f0f0f0;" d="M170.667,110.933L170.667,110.933L170.667,110.933l42.667-68.267 c-52.907,1.707-68.267,15.36-68.267,34.133C145.067,85.333,161.28,102.4,170.667,110.933"/> </g> <g> <path style="fill:#00DA6C;" d="M328.533,260.267c-1.707-1.707-3.413-4.267-4.267-5.973C271.36,233.813,217.6,196.267,174.08,148.48 c3.413,29.867,11.947,47.787,17.067,57.173c2.56,3.413,3.413,7.68,5.12,11.947c48.64,40.96,104.107,69.973,157.867,82.773 C346.453,285.013,338.773,272.213,328.533,260.267"/> <path style="fill:#00DA6C;" d="M155.307,455.68c82.773-21.333,157.867-64.853,209.067-118.613 c-2.56-13.653-5.973-26.453-11.947-39.253c-45.227,55.467-120.32,102.4-203.947,123.733 C151.04,433.493,152.747,444.587,155.307,455.68"/> </g> <g> <path style="fill:#FFA800;" d="M349.867,486.4C368.64,412.16,384,324.267,327.68,260.267c-7.68-8.533-11.947-19.627-11.947-31.573 v-0.853c0-8.533,1.707-16.213,5.973-23.04c7.68-12.8,19.627-41.813,19.627-93.867l-17.067-17.067 c0,52.053-11.947,98.133-19.627,110.933c-4.267,6.827-5.973,15.36-5.973,23.04v0.853c0,11.947,4.267,22.187,11.947,31.573 c56.32,64,40.107,151.04,22.187,226.133H349.867z"/> <path style="fill:#FFA800;" d="M298.667,42.667l0.853,0.853c38.4,3.413,50.347,16.213,50.347,33.28c0,5.12-7.68,15.36-15.36,23.04 l6.827,11.093c9.387-8.533,25.6-25.6,25.6-34.133C366.933,58.027,351.573,44.373,298.667,42.667"/> </g> <g> <path style="fill:#FFFFFF;" d="M162.133,494.933C143.36,420.693,128,332.8,184.32,268.8c7.68-8.533,11.947-19.627,11.947-31.573 v-0.853c0-8.533-1.707-16.213-5.973-23.04c-7.68-12.8-19.627-41.813-19.627-93.867l17.067-17.067 c0,52.053,11.947,98.133,19.627,110.933c4.267,6.827,5.973,14.507,5.973,23.04v0.853c0,11.947-4.267,22.187-11.947,31.573 c-56.32,64-40.96,151.893-22.187,226.133H162.133z"/> <path style="fill:#FFFFFF;" d="M213.333,51.2l-0.853,0.853c-38.4,4.267-50.347,17.067-50.347,33.28c0,5.12,7.68,15.36,15.36,23.04 l-6.827,11.093c-9.387-8.533-25.6-25.6-25.6-34.133C145.067,66.56,160.427,52.907,213.333,51.2"/> </g> <g> <path style="fill:#00AD55;" d="M306.347,253.44c1.707,2.56,2.56,4.267,4.267,5.973c9.387,10.24,16.213,21.333,22.187,33.28 c6.827,1.707,13.653,4.267,19.627,5.12c-5.973-13.653-13.653-26.453-24.747-38.4c-1.707-1.707-3.413-4.267-4.267-5.973H306.347z"/> <path style="fill:#00AD55;" d="M363.52,337.067c-2.56-13.653-5.973-26.453-11.947-39.253c-3.413,4.267-7.68,9.387-11.947,13.653 c2.56,8.533,5.973,24.747,7.68,33.28L363.52,337.067z"/> </g> <path d="M256,512c-43.52,0-94.72-17.067-96.427-17.92c-2.56-0.853-5.12-3.413-5.973-5.973 c-19.627-77.653-34.987-166.4,23.893-233.813c6.827-7.68,10.24-16.213,10.24-25.6v-0.853c0-6.827-1.707-12.8-5.12-18.773 c-7.68-13.653-20.48-43.52-20.48-98.133c0-1.707,0.853-3.413,1.707-4.267L206.507,38.4c1.707-3.413,5.12-5.12,8.533-4.267 c4.267,0.853,6.827,4.267,6.827,7.68c2.56,29.013,23.04,75.947,34.133,100.693c11.093-23.893,31.573-71.68,34.133-99.84 c0-3.413,3.413-6.827,6.827-7.68s7.68,0,9.387,3.413l42.667,68.267c0.853,0.853,0.853,2.56,0.853,4.267 c0,54.613-12.8,84.48-20.48,98.133c-3.413,5.973-5.12,11.947-5.12,18.773v0.853c0,9.387,3.413,17.92,10.24,25.6 c58.88,67.413,43.52,156.16,23.893,233.813c-0.853,2.56-2.56,5.12-5.973,5.973C350.72,494.933,299.52,512,256,512z M169.813,479.573 c12.8,4.267,52.907,15.36,86.187,15.36s73.387-11.093,87.04-15.36c17.92-72.533,31.573-154.453-21.333-214.187 c-9.387-10.24-14.507-23.893-14.507-36.693v-0.853c0-9.387,2.56-18.773,7.68-27.307c6.827-11.947,17.92-38.4,17.92-87.04 l-29.867-47.787C291.84,109.227,263.68,166.4,263.68,166.4c-1.707,2.56-4.267,4.267-7.68,4.267l0,0c-2.56,0-5.973-1.707-7.68-4.267 c0-0.853-28.16-57.173-39.253-100.693L179.2,113.493c0,49.493,11.093,75.093,17.92,87.04c5.12,8.533,7.68,17.92,7.68,27.307v0.853 c0,13.653-5.12,26.453-14.507,36.693C138.24,325.12,151.893,407.04,169.813,479.573z"/> <path d="M341.333,119.467h-0.853c-2.56,0-5.12-1.707-5.973-4.267L291.84,46.933c-1.707-2.56-1.707-5.973,0-8.533 c0.853-2.56,4.267-4.267,6.827-4.267c18.773,0.853,76.8,1.707,76.8,42.667c0,12.8-19.627,32.427-28.16,40.107 C345.6,118.613,343.893,119.467,341.333,119.467z M314.88,52.053l28.16,45.227c8.533-9.387,15.36-17.92,15.36-20.48 C358.4,71.68,358.4,56.32,314.88,52.053z"/> <path d="M256,170.667c-2.56,0-5.973-1.707-7.68-4.267c0-0.853-39.253-79.36-43.52-122.88c0-2.56,0.853-5.12,1.707-6.827 c2.56-1.707,4.267-2.56,6.827-2.56s5.973,0,8.533,0c5.12,0,8.533-3.413,8.533-8.533V8.533c0-5.12,3.413-8.533,8.533-8.533h34.133 c5.12,0,8.533,3.413,8.533,8.533V25.6c0,5.12,3.413,8.533,8.533,8.533c3.413,0,5.973,0,8.533,0s4.267,0.853,5.973,2.56 c1.707,2.56,2.56,4.267,2.56,6.827c-4.267,43.52-43.52,122.027-43.52,122.88C261.973,168.96,259.413,170.667,256,170.667 L256,170.667z M223.573,51.2c5.12,29.013,23.04,69.12,32.427,91.307c10.24-22.187,27.307-62.293,32.427-91.307 c-12.8-0.853-23.893-11.947-23.893-25.6v-8.533h-17.067V25.6C247.467,39.253,236.373,50.347,223.573,51.2z"/> <path d="M170.667,119.467c-2.56,0-5.12-0.853-6.827-3.413c-9.387-8.533-27.307-26.453-27.307-39.253 c0-40.96,58.027-41.813,76.8-42.667c3.413,0,5.973,1.707,7.68,4.267s1.707,5.973,0,8.533L179.2,114.347 c-1.707,2.56-4.267,5.12-6.827,5.12C171.52,119.467,171.52,119.467,170.667,119.467z M197.12,52.053 C153.6,56.32,153.6,71.68,153.6,76.8c0,2.56,6.827,11.093,15.36,20.48L197.12,52.053z"/> <path d="M352.427,307.2c-0.853,0-1.707,0-1.707,0c-54.613-12.8-110.933-41.813-161.28-84.48c-1.707-0.853-2.56-2.56-2.56-4.267 c-0.853-3.413-2.56-6.827-3.413-9.387c-5.973-10.24-14.507-29.867-17.92-59.733c-0.853-3.413,1.707-7.68,5.12-8.533 c3.413-1.707,7.68-0.853,10.24,1.707c42.667,46.933,94.72,83.627,147.627,104.107c1.707,0.853,3.413,1.707,4.267,3.413 c0.853,1.707,2.56,3.413,3.413,5.12c11.093,11.947,19.627,26.453,26.453,40.96c1.707,2.56,0.853,6.827-0.853,8.533 C357.547,306.347,354.987,307.2,352.427,307.2z M202.24,211.627c42.667,34.987,87.893,60.587,133.973,74.24 c-4.267-6.827-9.387-13.653-14.507-19.627c-0.853-1.707-2.56-3.413-3.413-5.12c-46.08-17.92-91.307-48.64-130.56-86.187 c3.413,11.947,7.68,20.48,10.24,25.6C199.68,203.947,201.387,207.36,202.24,211.627z"/> <path d="M155.307,464.213c-1.707,0-3.413-0.853-4.267-0.853c-1.707-0.853-3.413-3.413-4.267-5.12 c-2.56-11.947-4.267-23.04-5.973-34.133c-0.853-4.267,1.707-8.533,5.973-9.387c80.213-21.333,155.307-66.56,198.827-121.173 c1.707-2.56,5.12-3.413,7.68-3.413c2.56,0,5.12,2.56,6.827,5.12c5.973,12.8,9.387,25.6,11.947,40.96c0.853,2.56,0,5.12-2.56,7.68 c-52.053,55.467-129.707,99.84-213.333,121.173C156.16,464.213,156.16,464.213,155.307,464.213z M158.72,428.373 c0.853,5.973,1.707,11.093,3.413,17.067c75.093-20.48,145.067-60.587,192.853-110.933c-1.707-6.827-3.413-13.653-5.12-19.627 C304.64,365.227,234.667,407.04,158.72,428.373z"/> </g>
</svg>