<?xml version="1.0" encoding="iso-8859-1"?>
<!-- Uploaded to: SVG Repo, www.svgrepo.com, Generator: SVG Repo Mixer Tools -->
<svg height="800px" width="800px" version="1.1" id="Layer_1" xmlns="http://www.w3.org/2000/svg" xmlns:xlink="http://www.w3.org/1999/xlink" 
	 viewBox="0 0 392.701 392.701" xml:space="preserve">
<g>
	<path style="fill:#FFC10D;" d="M347.896,80.515c-3.62-6.594-8.469-12.347-14.158-17.39c-6.271,10.214-15.709,32.84-20.105,79.838
		l2.004,2.909c32-6.271,47.127-13.317,53.527-17.131C364.575,113.485,357.464,97.324,347.896,80.515z"/>
	<path style="fill:#FFC10D;" d="M44.834,80.515C35.266,97.259,28.155,113.42,23.5,128.742c6.4,3.879,21.527,10.925,53.527,17.131
		l1.875-2.651C74.442,96.031,64.939,73.21,58.991,63.19C53.302,68.233,48.519,73.986,44.834,80.515z"/>
</g>
<path style="fill:#56ACE0;" d="M315.508,51.36c-31.224-12.347-52.558-13.188-61.673-22.885l-47.838,83.782
	c-4.267,7.434-14.933,7.434-19.135,0L138.959,28.41c-8.339,9.244-40.469,13.964-61.673,22.885
	c17.455,27.992,40.081,104.21,14.739,309.398c22.497,5.947,92.057,19.459,208.549-1.099
	C275.428,154.988,298.313,78.899,315.508,51.36z"/>
<path style="fill:#FFFFFF;" d="M228.882,28.023c-13.511,2.651-25.729,3.685-36.525,3.685c-10.667,0-20.04-1.034-27.798-2.392
	L196.3,84.847L228.882,28.023z"/>
<path style="fill:#194F82;" d="M392.244,130.099c-4.913-19.071-13.446-39.434-25.341-60.38
	c-11.442-20.105-30.384-35.232-53.333-42.602l-44.347-14.222l-10.537-9.891c-2.392-2.327-6.594-3.943-10.796-2.392V0.548
	c-62.448,20.17-100.655,1.099-101.301,0.776v0.065c-1.099-0.517-6.594-3.426-12.606,1.681l-10.537,9.956L79.096,27.247
	c-22.949,7.37-41.891,22.497-53.333,42.602c-11.83,20.945-20.364,41.309-25.277,60.38c-0.84,3.168-0.323,6.659,1.681,9.115
	c16.679,20.428,78.222,29.414,78.416,29.414c2.133,45.899-0.065,109.834-11.442,198.465c-0.646,4.978,2.263,9.762,6.853,11.572
	c63.677,18.747,143.774,18.166,238.545,0.517c5.624-1.099,9.503-6.335,8.792-12.154c-11.378-88.695-13.705-152.566-11.572-198.335
	c0,0,63.03-9.891,78.61-29.543C392.438,136.564,393.084,133.267,392.244,130.099z M192.357,31.707
	c10.796,0,23.014-1.034,36.525-3.685l-32.517,56.889L164.559,29.38C172.317,30.673,181.626,31.707,192.357,31.707z M76.963,145.938
	c-32-6.271-47.127-13.317-53.527-17.131c4.655-15.321,11.766-31.418,21.333-48.226c3.685-6.465,8.598-12.283,14.158-17.325
	c6.012,10.02,15.451,32.84,19.911,80.032L76.963,145.938z M300.51,359.659c-116.428,20.558-185.988,7.046-208.485,1.099
	C117.367,155.57,94.805,79.223,77.286,51.36c21.075-8.857,53.333-13.576,61.673-22.885l47.838,83.782
	c4.267,7.434,14.933,7.434,19.135,0l47.838-83.782c9.18,9.762,30.448,10.537,61.673,22.885
	C298.313,79.029,275.363,154.988,300.51,359.659z M315.702,145.938l-2.004-2.909c4.396-46.998,13.834-69.624,20.105-79.838
	c5.624,5.042,10.408,10.796,14.222,17.39c9.503,16.743,16.679,32.97,21.333,48.226C362.894,132.62,347.767,139.667,315.702,145.938z
	"/>
<path style="fill:#FFC10D;" d="M223.646,189.574c-8.21,0.905-15.192,6.206-19.394,13.188c-3.556,6.077-12.154,5.818-15.838-0.259
	c-4.784-7.887-13.188-13.188-22.432-13.123c-13.705,0.129-24.824,11.378-24.824,25.083c0,16.873,30.19,50.23,55.143,72.275
	c24.954-22.238,55.273-55.919,55.273-72.275C251.638,199.788,238.708,187.893,223.646,189.574z"/>
<path style="fill:#194F82;" d="M226.49,167.659c-11.184,0-21.786,3.943-30.125,10.99c-8.339-7.046-18.941-10.99-30.125-10.99
	c-25.859,0-46.933,21.01-46.933,46.933c0,35.232,58.311,85.333,70.077,95.03l0.453,0.388c3.814,3.168,9.244,3.103,13.059-0.065
	l0.453-0.388c11.636-9.826,70.012-60.574,70.012-94.966C273.424,188.669,252.284,167.659,226.49,167.659z M196.3,286.738
	c-24.889-21.915-55.143-55.402-55.143-72.275c0-13.77,11.119-24.954,24.824-25.083c9.18-0.065,17.648,5.236,22.432,13.123
	c3.685,6.012,12.283,6.335,15.838,0.259c4.202-7.111,11.184-12.347,19.394-13.188c15.127-1.681,27.992,10.15,27.992,24.954
	C251.638,230.818,221.254,264.435,196.3,286.738z"/>
</svg>